<!DOCTYPE svg PUBLIC "-//W3C//DTD SVG 20010904//EN" "http://www.w3.org/TR/2001/REC-SVG-20010904/DTD/svg10.dtd">
<svg version="1.0" xmlns="http://www.w3.org/2000/svg" width="800px" height="800px" viewBox="0 0 8000 8000" preserveAspectRatio="xMidYMid meet">
<g id="layer101" fill="#000000" stroke="none">
 <path d="M2500 7347 c-19 -8 -159 -84 -310 -169 -305 -173 -319 -186 -320 -278 0 -24 39 -198 86 -385 62 -245 83 -346 77 -362 -9 -26 -261 -283 -277 -283 -5 0 -162 34 -348 75 -186 41 -357 75 -380 75 -26 0 -59 -9 -82 -23 -37 -20 -52 -46 -198 -327 -170 -329 -176 -346 -140 -422 11 -24 109 -122 282 -284 146 -135 268 -252 272 -259 8 -13 -45 -322 -61 -361 -7 -15 -35 -31 -93 -52 -568 -208 -634 -234 -657 -260 -24 -26 -24 -28 -18 -187 8 -222 51 -556 80 -615 33 -68 67 -81 337 -130 129 -23 290 -53 358 -65 68 -12 129 -28 137 -36 16 -17 125 -279 125 -299 0 -8 -93 -136 -206 -285 -114 -148 -215 -283 -225 -300 -29 -45 -26 -132 5 -178 14 -20 117 -150 230 -290 216 -268 237 -287 316 -287 16 0 110 34 208 74 471 197 523 216 546 204 48 -25 206 -140 214 -156 5 -10 -4 -172 -20 -382 l-28 -365 23 -44 c12 -25 33 -53 47 -63 14 -10 179 -70 367 -134 373 -126 384 -128 455 -81 19 13 115 142 239 320 113 164 211 303 216 308 13 13 473 13 486 0 5 -5 103 -144 216 -308 124 -178 220 -307 239 -320 71 -47 82 -45 455 81 188 64 353 124 367 134 14 10 35 38 47 63 l23 44 -28 365 c-16 210 -25 372 -20 382 8 16 166 131 214 156 23 12 75 -7 546 -204 98 -40 192 -74 208 -74 79 0 100 19 316 287 113 140 216 270 230 290 31 46 34 133 5 178 -10 17 -111 152 -225 300 -113 149 -206 277 -206 285 0 20 109 282 125 299 8 8 69 24 137 36 686 124 656 116 695 195 29 59 72 393 80 615 6 159 6 161 -18 187 -23 26 -89 52 -657 260 -58 21 -86 37 -93 52 -16 39 -69 348 -61 361 4 7 126 124 272 259 173 162 271 260 282 284 36 76 30 93 -140 422 -146 281 -161 307 -198 327 -23 14 -56 23 -82 23 -23 0 -194 -34 -380 -75 -186 -41 -343 -75 -348 -75 -16 0 -268 257 -277 283 -6 16 15 117 77 362 47 187 86 361 86 385 -1 93 -13 104 -340 288 -274 154 -299 166 -346 166 -33 0 -61 -6 -81 -19 -17 -11 -151 -142 -297 -292 -228 -233 -266 -276 -266 -302 0 -16 -50 -269 -111 -563 -62 -293 -116 -560 -122 -593 -19 -114 -246 -1210 -266 -1285 -11 -41 -34 -140 -51 -220 -17 -80 -36 -159 -43 -177 -17 -50 1 -77 83 -118 177 -89 271 -180 344 -330 50 -104 68 -183 67 -304 0 -109 -12 -170 -51 -263 -63 -149 -184 -275 -335 -347 -105 -51 -175 -65 -315 -65 -140 0 -210 14 -315 65 -151 72 -272 198 -335 347 -39 93 -51 154 -51 263 -1 121 17 200 67 304 73 150 167 241 344 330 82 41 100 68 83 118 -7 18 -26 97 -43 177 -17 80 -40 179 -51 220 -20 75 -247 1171 -266 1285 -6 33 -60 300 -122 593 -61 294 -111 547 -111 563 0 26 -38 69 -266 302 -146 150 -278 280 -293 289 -38 24 -100 31 -141 15z"/>
 </g>

</svg>