<?xml version="1.0" encoding="UTF-8" standalone="no"?>
<svg
   xmlns:dc="http://purl.org/dc/elements/1.1/"
   xmlns:cc="http://creativecommons.org/ns#"
   xmlns:rdf="http://www.w3.org/1999/02/22-rdf-syntax-ns#"
   xmlns:svg="http://www.w3.org/2000/svg"
   xmlns="http://www.w3.org/2000/svg"
   id="svg10"
   preserveAspectRatio="xMidYMid meet"
   viewBox="0 0 600.000000 600.000000"
   height="600.000000pt"
   width="600.000000pt"
   version="1.0">
  <defs
     id="defs14" />
  <metadata
     id="metadata2">
Created by potrace 1.11, written by Peter Selinger 2001-2013
<rdf:RDF>
  <cc:Work
     rdf:about="">
    <dc:format>image/svg+xml</dc:format>
    <dc:type
       rdf:resource="http://purl.org/dc/dcmitype/StillImage" />
    <dc:title></dc:title>
  </cc:Work>
</rdf:RDF>
</metadata>
  <g
     style="stroke:#efffed;stroke-opacity:1;fill:#000000;stroke-width:75;stroke-miterlimit:4;stroke-dasharray:none;stroke-linejoin:round;stroke-linecap:round"
     id="g8"
     stroke="none"
     fill="#000000"
     transform="translate(0.000000,600.000000) scale(0.100000,-0.100000)">
    <path
       style="stroke:#efffed;stroke-opacity:1;fill:#000000;stroke-width:75;stroke-miterlimit:4;stroke-dasharray:none;stroke-linejoin:round;stroke-linecap:round"
       id="path4"
       d="M2829 5416 c-2 -2 -38 -6 -79 -10 -41 -3 -86 -8 -100 -10 -14 -3 -41 -7 -60 -10 -77 -12 -108 -19 -165 -33 -11 -3 -33 -7 -48 -10 -26 -5 -27 -8 -22 -42 7 -41 7 -135 1 -169 -14 -68 -104 -194 -149 -208 -12 -3 -50 -19 -85 -35 -35 -16 -68 -29 -73 -29 -5 0 -9 -4 -9 -10 0 -5 -7 -10 -15 -10 -27 0 -229 -126 -341 -212 -106 -83 -119 -95 -228 -207 -166 -171 -162 -168 -223 -186 -99 -29 -198 -21 -283 24 -45 23 -60 26 -60 11 0 -5 -18 -37 -40 -72 -23 -34 -43 -72 -46 -85 -4 -13 -9 -23 -13 -23 -4 0 -16 -19 -26 -42 -10 -24 -35 -79 -55 -123 -34 -73 -105 -268 -116 -315 -2 -11 -6 -29 -8 -39 -3 -11 -9 -28 -13 -38 -5 -10 -9 -25 -8 -33 1 -8 -2 -25 -7 -38 -4 -13 -10 -37 -13 -55 -3 -18 -10 -57 -15 -87 -24 -137 -33 -276 -17 -277 92 -5 200 -56 258 -121 61 -69 71 -96 84 -234 7 -79 13 -120 30 -198 3 -14 7 -34 9 -45 19 -93 57 -216 105 -333 38 -95 51 -123 73 -162 4 -8 13 -26 19 -39 5 -14 30 -57 55 -97 47 -76 53 -91 54 -157 3 -114 -29 -191 -117 -281 l-31 -32 51 -59 c98 -112 290 -295 308 -295 5 0 9 -4 9 -8 0 -14 210 -163 315 -224 55 -32 276 -142 291 -145 5 -1 25 -9 46 -17 l36 -15 22 45 c61 131 236 231 345 199 22 -7 56 -15 75 -18 19 -3 42 -7 50 -10 8 -3 35 -8 60 -11 25 -3 61 -8 80 -10 19 -3 80 -8 134 -11 55 -3 102 -6 105 -7 3 0 8 0 11 1 3 1 59 3 125 6 66 3 131 7 145 10 14 3 43 8 65 10 44 5 48 6 155 30 85 19 110 20 160 4 107 -35 185 -99 227 -186 24 -52 32 -60 47 -45 4 4 11 7 14 8 30 3 259 115 359 175 221 134 441 320 610 515 l52 60 -43 42 c-72 71 -110 169 -106 273 1 60 7 75 54 153 25 42 46 80 46 85 0 5 6 16 13 23 33 33 158 363 186 490 22 99 38 191 46 268 3 30 8 75 11 100 8 77 88 177 179 223 40 20 115 40 142 39 22 -2 22 1 17 81 -3 45 -7 93 -10 107 -2 14 -7 41 -9 60 -3 19 -7 46 -10 60 -2 14 -7 40 -10 58 -3 18 -12 58 -21 90 -8 31 -17 64 -19 72 -32 146 -140 410 -234 576 -42 75 -81 134 -87 134 -2 0 -24 -10 -47 -22 -147 -74 -309 -49 -408 64 -105 121 -311 309 -391 356 -15 9 -28 20 -28 24 0 4 -5 8 -11 8 -6 0 -29 13 -52 28 -69 47 -154 92 -275 148 -129 60 -143 70 -187 139 -53 85 -67 151 -52 261 l7 50 -77 17 c-102 23 -139 30 -223 42 -25 4 -56 9 -70 11 -31 6 -446 14 -451 10z m376 -879 c51 -5 90 -12 135 -23 14 -3 32 -7 40 -8 31 -6 136 -37 152 -46 10 -6 22 -10 28 -10 17 0 188 -80 253 -118 61 -36 134 -84 190 -126 62 -46 238 -226 291 -296 31 -41 60 -79 64 -85 27 -35 144 -255 154 -290 3 -11 17 -51 31 -88 14 -37 26 -71 27 -75 0 -4 5 -23 10 -42 9 -36 12 -51 35 -175 13 -69 14 -405 2 -470 -13 -71 -17 -91 -21 -112 -8 -38 -38 -147 -46 -168 -4 -11 -18 -47 -31 -80 -106 -280 -332 -569 -574 -736 -27 -19 -52 -37 -55 -40 -4 -5 -79 -46 -180 -100 -63 -34 -189 -80 -285 -105 -59 -16 -76 -20 -125 -29 -14 -3 -35 -7 -48 -9 -80 -17 -320 -23 -417 -12 -29 3 -135 19 -145 21 -3 1 -18 4 -35 8 -16 4 -39 9 -50 11 -62 13 -204 65 -301 111 -99 47 -250 135 -264 155 -3 4 -12 11 -21 16 -42 23 -167 138 -235 216 -76 86 -88 101 -119 148 -16 25 -33 46 -37 48 -5 2 -8 8 -8 13 0 5 -12 28 -27 52 -81 127 -145 295 -197 517 -2 9 -7 43 -11 75 -4 33 -9 69 -11 80 -6 27 -5 272 1 310 2 17 6 48 9 70 16 117 51 249 99 375 23 58 44 107 47 110 3 3 15 23 26 45 22 45 95 167 104 175 3 3 17 21 30 40 34 50 53 71 155 174 125 127 176 167 325 257 183 110 390 183 610 214 83 11 325 13 425 2z" />
    <path
       style="stroke:#efffed;stroke-opacity:1;fill:#000000;stroke-width:75;stroke-miterlimit:4;stroke-dasharray:none;stroke-linejoin:round;stroke-linecap:round"
       id="path6"
       d="M2927 4004 c-1 -1 -27 -5 -57 -8 -98 -11 -231 -46 -257 -68 -7 -6 -13 -8 -13 -4 0 3 -22 -5 -50 -19 -27 -14 -52 -25 -55 -25 -3 0 -6 0 -7 -1 -48 -16 -117 4 -162 46 -35 32 -66 45 -66 28 0 -5 -17 -19 -37 -33 -43 -29 -143 -127 -193 -189 -125 -154 -227 -373 -259 -556 -23 -134 -26 -122 34 -140 90 -26 126 -82 140 -221 5 -49 26 -141 49 -219 52 -174 213 -389 388 -520 87 -65 112 -108 106 -183 -3 -32 -8 -64 -12 -72 -4 -11 6 -20 41 -33 27 -11 57 -23 68 -27 23 -10 162 -45 215 -55 19 -4 100 -8 180 -10 163 -3 280 14 416 60 113 39 137 53 129 73 -12 30 -18 90 -11 124 6 35 41 79 90 113 135 94 255 230 337 380 31 58 86 204 93 249 4 21 8 42 11 46 3 5 8 41 11 82 8 98 40 167 94 197 22 12 40 20 40 17 0 -3 13 0 30 5 32 12 32 10 15 99 -3 14 -7 40 -10 59 -3 19 -8 37 -10 41 -2 3 -6 17 -9 31 -13 72 -79 225 -139 324 -74 121 -219 280 -323 353 l-32 22 -15 -24 c-25 -37 -83 -68 -131 -70 -37 0 -102 20 -261 85 -32 13 -125 31 -185 36 -56 4 -190 9 -193 7z m173 -239 c30 -4 62 -7 70 -9 25 -3 165 -49 170 -55 3 -3 23 -14 45 -24 91 -42 240 -171 291 -252 10 -16 21 -32 25 -35 11 -8 80 -150 73 -150 -4 0 -2 -6 4 -12 6 -7 17 -40 26 -73 63 -247 18 -490 -129 -697 -114 -161 -272 -268 -475 -322 -114 -31 -320 -30 -415 1 -11 4 -22 7 -25 8 -81 15 -231 101 -324 186 -173 158 -271 386 -267 624 1 39 3 80 5 91 3 12 7 38 10 58 23 146 121 321 246 443 35 34 145 113 158 113 6 0 12 4 14 8 5 12 127 62 193 78 33 8 87 18 120 21 33 3 61 7 63 8 3 3 18 1 122 -10z" />
  </g>
</svg>
